<svg xmlns="http://www.w3.org/2000/svg" viewBox="0 0 128 128" role="img" aria-label="FreshOps logo">
  <defs>
    <linearGradient id="leafGrad" x1="0" y1="0" x2="1" y2="1">
      <stop offset="0%" stop-color="#2d9f45" />
      <stop offset="100%" stop-color="#45b26b" />
    </linearGradient>
  </defs>
  <rect width="128" height="128" rx="24" fill="#ecfdf5" />
  <path d="M64 24c-18 0-34 12-38 30 8-6 18-10 28-10 10 0 19 4 26 11 6 7 10 16 11 26 0 2 0 4-1 6 20-6 33-26 27-46-5-16-20-27-33-27z" fill="url(#leafGrad)" />
  <path d="M75 67c-6 3-12 5-18 7 0 0-6 1-10 5-3 3-5 8-5 13 0 4 1 8 4 11 2 2 5 4 8 5 5 2 11 1 16-1 4-1 8-4 11-7 3-4 4-9 4-14 0-10-6-18-10-19z" fill="#2d9f45" opacity="0.85" />
  <circle cx="39" cy="36" r="8" fill="#fff" opacity="0.7" />
  <path d="M32 36c0-10 8-18 18-18" stroke="#fff" stroke-width="4" stroke-linecap="round" fill="none" opacity="0.8" />
</svg>
